<svg width="1027" height="827" viewBox="0 0 1027 827" fill="none" xmlns="http://www.w3.org/2000/svg">
<circle cx="513.5" cy="327.5" r="240" stroke="white" stroke-opacity="0.5"/>
<circle cx="513.5" cy="327.5" r="218" stroke="white" stroke-opacity="0.5"/>
<line x1="513.5" y1="2.18557e-08" x2="513.5" y2="657.007" stroke="white" stroke-opacity="0.5"/>
<path d="M937.444 154.413C949.59 173.837 949.44 199.764 938.615 230.114C927.792 260.457 906.325 295.138 875.982 331.974C815.299 405.642 719.192 487.843 602.039 561.098C484.886 634.352 368.904 684.768 276.103 707.07C229.7 718.223 189.122 722.339 157.102 718.784C125.076 715.228 101.701 704.011 89.5556 684.587C77.4099 665.163 77.5597 639.236 88.385 608.886C99.208 578.543 120.675 543.862 151.018 507.026C211.701 433.358 307.808 351.157 424.961 277.903C542.114 204.648 658.096 154.232 750.897 131.93C797.3 120.778 837.878 116.662 869.898 120.217C901.924 123.772 925.299 134.989 937.444 154.413Z" stroke="white" stroke-opacity="0.5"/>
<path d="M809.413 234.469C817.825 247.922 817.702 265.92 810.121 287.046C802.542 308.165 787.536 332.325 766.331 358.005C723.925 409.361 656.799 466.708 575 517.855C493.202 569.003 412.254 604.245 347.515 619.885C315.143 627.706 286.852 630.619 264.547 628.187C242.234 625.753 225.999 617.984 217.587 604.531C209.175 591.078 209.298 573.08 216.879 551.954C224.458 530.835 239.464 506.675 260.669 480.995C303.075 429.639 370.201 372.292 452 321.145C533.798 269.998 614.746 234.756 679.485 219.115C711.857 211.294 740.148 208.381 762.453 210.813C784.766 213.247 801.001 221.016 809.413 234.469Z" stroke="white" stroke-opacity="0.5"/>
<circle cx="513.5" cy="327.5" r="218.5" fill="#D9D9D9"/>
<circle cx="513.5" cy="327.5" r="218" stroke="white" stroke-opacity="0.5"/>
<path d="M584.955 299.601C584.955 260.022 552.87 227.937 513.291 227.937C473.712 227.937 441.627 260.022 441.627 299.601V355.59C441.627 395.169 473.712 427.254 513.291 427.254C552.87 427.254 584.955 395.169 584.955 355.59V299.601Z" stroke="#231F20" stroke-width="3" stroke-linecap="round" stroke-linejoin="round"/>
<path d="M516.726 213.571H509.856C463.306 213.571 425.571 251.306 425.571 297.856V357.347C425.571 403.896 463.306 441.632 509.856 441.632H516.726C563.275 441.632 601.011 403.896 601.011 357.347V297.856C601.011 251.306 563.275 213.571 516.726 213.571Z" stroke="#231F20" stroke-width="3" stroke-linecap="round" stroke-linejoin="round"/>
<path d="M445.643 274.919H580.938" stroke="#231F20" stroke-width="3" stroke-linecap="round" stroke-linejoin="round"/>
<path d="M488.978 261.492H537.604" stroke="#231F20" stroke-width="3" stroke-linecap="round" stroke-linejoin="round"/>
<path d="M513.291 427.255L473.66 353.297L464.351 315.859H481.828L497.694 342.119L577.448 387.557" stroke="#231F20" stroke-width="3" stroke-linecap="round" stroke-linejoin="round"/>
<path d="M584.944 338.65C582.586 336.362 579.606 334.821 576.376 334.22C573.146 333.618 569.811 333.982 566.788 335.268C563.764 336.553 561.187 338.702 559.379 341.445C557.572 344.189 556.614 347.404 556.625 350.689C556.625 351.07 556.625 351.45 556.681 351.808C554.478 350.277 551.772 349.648 549.12 350.054C546.468 350.459 544.072 351.867 542.427 353.986C540.783 356.106 540.014 358.776 540.281 361.446C540.547 364.116 541.828 366.581 543.859 368.334" stroke="#231F20" stroke-width="3" stroke-linecap="round" stroke-linejoin="round"/>
<path d="M474.801 365.078C473.416 362.588 471.244 360.629 468.626 359.506C466.007 358.384 463.09 358.162 460.331 358.877C457.573 359.591 455.13 361.2 453.385 363.452C451.64 365.705 450.692 368.473 450.69 371.322V371.557C448.302 371.554 445.937 372.021 443.73 372.933" stroke="#231F20" stroke-width="3" stroke-linecap="round" stroke-linejoin="round"/>
<path d="M474.801 365.078C475.913 364.018 477.205 363.165 478.617 362.561" stroke="#231F20" stroke-width="3" stroke-linecap="round" stroke-linejoin="round"/>
<path d="M538.097 331.109C535.696 327.969 532.37 325.661 528.589 324.511C524.807 323.36 520.76 323.426 517.017 324.697C513.274 325.968 510.025 328.382 507.727 331.598C505.428 334.814 504.197 338.67 504.206 342.622C504.212 343.748 504.313 344.871 504.508 345.979" stroke="#231F20" stroke-width="3" stroke-linecap="round" stroke-linejoin="round"/>
<path d="M538.096 331.109C539.419 329.577 541.056 328.349 542.896 327.507C544.736 326.665 546.736 326.23 548.759 326.231C550.174 326.232 551.58 326.443 552.933 326.857" stroke="#231F20" stroke-width="3" stroke-linecap="round" stroke-linejoin="round"/>
<path d="M552.933 326.857C551.974 324.423 551.481 321.831 551.478 319.215C551.481 313.606 553.712 308.227 557.679 304.262C561.647 300.296 567.027 298.068 572.636 298.068C577.011 298.097 581.284 299.387 584.944 301.783" stroke="#231F20" stroke-width="3" stroke-linecap="round" stroke-linejoin="round"/>
</svg>
