<?xml version="1.0" encoding="utf-8"?>
<!-- Generator: Adobe Illustrator 26.0.1, SVG Export Plug-In . SVG Version: 6.00 Build 0)  -->
<svg version="1.1" id="Layer_1" xmlns="http://www.w3.org/2000/svg" xmlns:xlink="http://www.w3.org/1999/xlink" x="0px" y="0px"
	 viewBox="0 0 63 63" style="enable-background:new 0 0 63 63;" xml:space="preserve">
<style type="text/css">
	.st0{fill:none;stroke:#FFFFFF;stroke-width:2;stroke-linejoin:round;}
</style>
<path class="st0" d="M57.5,1h-52C4.9,1,4.3,1.1,3.8,1.3c-0.5,0.2-1,0.5-1.5,0.9c-0.4,0.4-0.8,0.9-1,1.4C1.1,4.2,1,4.8,1,5.4v52.2
	c0,0.6,0.1,1.2,0.4,1.7c0.2,0.5,0.6,1,1,1.4c0.4,0.4,0.9,0.7,1.5,1C4.3,61.9,4.9,62,5.5,62h52c0.6,0,1.2-0.1,1.7-0.3
	c0.5-0.2,1-0.5,1.5-0.9c0.4-0.4,0.8-0.9,1-1.4c0.2-0.5,0.4-1.1,0.4-1.7V5.4c0-0.6-0.1-1.2-0.4-1.7c-0.2-0.5-0.6-1-1-1.4
	c-0.4-0.4-0.9-0.7-1.5-0.9S58.1,1,57.5,1z M19.1,53h-9V23.9h9V53z M14.5,19.9c-1.4,0-2.7-0.6-3.7-1.5c-1-1-1.5-2.3-1.5-3.7
	c0-1.4,0.6-2.7,1.5-3.7s2.3-1.5,3.7-1.5c0.7,0,1.4,0.1,2,0.4c0.6,0.3,1.2,0.6,1.7,1.1c0.5,0.5,0.9,1.1,1.1,1.7
	c0.3,0.6,0.4,1.3,0.4,2c0,1.4-0.6,2.7-1.5,3.7S16,19.9,14.5,19.9L14.5,19.9z M53,53h-9V38.8c0-3.4-0.1-7.7-4.7-7.7s-5.4,3.7-5.4,7.5
	V53h-9V23.9h8.7v4h0.1c0.9-1.5,2.1-2.7,3.6-3.5c1.5-0.8,3.2-1.2,4.9-1.2c9.2,0,10.8,6,10.8,13.9L53,53z"/>
</svg>
