<?xml version="1.0" encoding="utf-8"?>
<!-- Generator: Adobe Illustrator 26.0.1, SVG Export Plug-In . SVG Version: 6.00 Build 0)  -->
<svg version="1.1" id="Layer_1" xmlns="http://www.w3.org/2000/svg" xmlns:xlink="http://www.w3.org/1999/xlink" x="0px" y="0px"
	 viewBox="0 0 64 62" style="enable-background:new 0 0 64 62;" xml:space="preserve">
<style type="text/css">
	.st0{fill:none;stroke:#FFFFFF;stroke-width:2;stroke-linejoin:round;}
</style>
<path class="st0" d="M32,1c-4.1,0-8.1,0.8-11.9,2.4S12.9,7.2,10,10.1s-5.2,6.2-6.7,10S1,27.7,1,31.8c0,6.4,2,12.7,5.8,18
	S16,59,22.2,61c1.5,0.3,2.1-0.7,2.1-1.5c0-0.7-0.1-3.1-0.1-5.7c-8.6,1.8-10.4-3.7-10.4-3.7c-1.4-3.6-3.4-4.5-3.4-4.5
	c-2.8-1.9,0.2-1.9,0.2-1.9c3.1,0.2,4.8,3.1,4.8,3.1c2.8,4.7,7.2,3.4,9,2.6c0.1-1.6,0.8-3,2-4.1c-6.9-0.7-14.2-3.4-14.2-15.2
	c0-3,1.1-6,3.2-8.2c-0.3-0.8-1.4-3.9,0.3-8.1c0,0,2.6-0.8,8.5,3.1c2.5-0.7,5.1-1,7.8-1c2.6,0,5.2,0.3,7.8,1c5.9-4,8.5-3.1,8.5-3.1
	c1.7,4.2,0.6,7.4,0.3,8.1c2.1,2.2,3.2,5.2,3.2,8.2c0,11.8-7.2,14.4-14.2,15.2c1.1,1,2.1,2.8,2.1,5.7c0,4.1-0.1,7.4-0.1,8.4
	c0,0.8,0.6,1.8,2.1,1.5c6.2-2.1,11.6-6,15.4-11.2C61,44.5,63,38.2,63,31.8c0-4-0.8-8-2.3-11.7s-3.8-7.1-6.7-10S47.7,5,43.9,3.4
	C40.2,1.8,36.1,1,32,1L32,1z"/>
</svg>
