<?xml version="1.0" encoding="utf-8"?>
<!-- Generator: Adobe Illustrator 26.0.1, SVG Export Plug-In . SVG Version: 6.00 Build 0)  -->
<svg version="1.1" id="Layer_1" xmlns="http://www.w3.org/2000/svg" xmlns:xlink="http://www.w3.org/1999/xlink" x="0px" y="0px"
	 viewBox="0 0 160 207" style="enable-background:new 0 0 160 207;" xml:space="preserve">
<style type="text/css">
	.st0{fill:none;stroke:#FFFFFF;stroke-width:3;stroke-linecap:round;stroke-linejoin:round;}
</style>
<path class="st0" d="M144,78.4c0-35.4-28.7-64.1-64.1-64.1c-35.4,0-64.1,28.7-64.1,64.1v50c0,35.4,28.7,64.1,64.1,64.1
	c35.4,0,64.1-28.7,64.1-64.1V78.4z"/>
<path class="st0" d="M83,1.5h-6.1C35.2,1.5,1.5,35.2,1.5,76.8V130c0,41.6,33.7,75.3,75.3,75.3H83c41.6,0,75.3-33.7,75.3-75.3V76.8
	C158.3,35.2,124.6,1.5,83,1.5z"/>
<path class="st0" d="M19.5,56.3h120.9"/>
<path class="st0" d="M58.2,44.3h43.5"/>
<path class="st0" d="M79.9,192.5l-35.4-66.1l-8.3-33.5h15.6L66,116.4l71.3,40.6"/>
<path class="st0" d="M143.9,113.3c-2.1-2-4.8-3.4-7.7-4c-2.9-0.5-5.9-0.2-8.6,0.9c-2.7,1.1-5,3.1-6.6,5.5c-1.6,2.5-2.5,5.3-2.5,8.3
	c0,0.3,0,0.7,0.1,1c-2-1.4-4.4-1.9-6.8-1.6s-4.5,1.6-6,3.5c-1.5,1.9-2.2,4.3-1.9,6.7c0.2,2.4,1.4,4.6,3.2,6.2"/>
<path class="st0" d="M45.5,136.9c-1.2-2.2-3.2-4-5.5-5c-2.3-1-4.9-1.2-7.4-0.6c-2.5,0.6-4.6,2.1-6.2,4.1c-1.6,2-2.4,4.5-2.4,7v0.2
	c-2.1,0-4.2,0.4-6.2,1.2"/>
<path class="st0" d="M45.5,136.9c1-0.9,2.1-1.7,3.4-2.2"/>
<path class="st0" d="M102.1,106.6c-2.1-2.8-5.1-4.9-8.5-5.9c-3.4-1-7-1-10.3,0.2c-3.3,1.1-6.2,3.3-8.3,6.2s-3.2,6.3-3.1,9.9
	c0,1,0.1,2,0.3,3"/>
<path class="st0" d="M102.1,106.6c1.2-1.4,2.6-2.5,4.3-3.2c1.6-0.8,3.4-1.1,5.2-1.1c1.3,0,2.5,0.2,3.7,0.6"/>
<path class="st0" d="M115.3,102.8c-0.9-2.2-1.3-4.5-1.3-6.8c0-5,2-9.8,5.5-13.4c3.5-3.5,8.4-5.5,13.4-5.5c3.9,0,7.7,1.2,11,3.3"/>
</svg>
